<svg width="12" height="7" viewBox="0 0 12 7" fill="none" xmlns="http://www.w3.org/2000/svg">
<path d="M0.667871 0.351295C0.773345 0.285354 0.897361 0.250104 1.02426 0.25H5.51832H6.80233L11.2964 0.25C11.4233 0.250104 11.5473 0.285354 11.6528 0.351295C11.7583 0.417237 11.8405 0.510913 11.889 0.620494C11.9375 0.730074 11.9503 0.850643 11.9255 0.966972C11.9008 1.0833 11.8398 1.19017 11.7501 1.27409L6.61401 6.07451C6.49363 6.18688 6.33046 6.25 6.16032 6.25C5.99019 6.25 5.82702 6.18688 5.70664 6.07451L0.57057 1.27409C0.480898 1.19017 0.419843 1.0833 0.395118 0.966972C0.370393 0.850643 0.383106 0.730074 0.431651 0.620494C0.480197 0.510913 0.562398 0.417237 0.667871 0.351295Z" fill="#252525"/>
</svg>
