<svg width="18" height="14" viewBox="0 0 18 14" fill="none" xmlns="http://www.w3.org/2000/svg">
<path d="M16.7493 5.99919C16.9483 5.99919 17.139 6.07821 17.2797 6.21886C17.4203 6.35952 17.4993 6.55028 17.4993 6.74919C17.4993 6.94811 17.4203 7.13887 17.2797 7.27952C17.139 7.42018 16.9483 7.49919 16.7493 7.49919L7.49934 7.49919L7.49934 12.7492C7.49921 12.8974 7.45515 13.0423 7.37273 13.1655C7.29031 13.2887 7.17323 13.3848 7.03626 13.4415C6.8993 13.4982 6.7486 13.513 6.6032 13.4842C6.45781 13.4553 6.32423 13.384 6.21934 13.2792L0.21934 7.27919C0.0788893 7.13857 -2.86335e-07 6.94795 -2.95023e-07 6.74919C-3.03711e-07 6.55044 0.0788893 6.35982 0.21934 6.21919L6.21934 0.219193C6.32423 0.114437 6.4578 0.0431134 6.6032 0.0142295C6.7486 -0.0146545 6.8993 0.000195202 7.03626 0.0569064C7.17323 0.113618 7.29031 0.209646 7.37273 0.332862C7.45515 0.456077 7.49921 0.600954 7.49934 0.749194L7.49934 5.99919L16.7493 5.99919Z" fill="#1D1C1C"/>
</svg>
