<svg width="18" height="14" viewBox="0 0 18 14" fill="none" xmlns="http://www.w3.org/2000/svg">
<path d="M0.75066 5.99919C0.551749 5.99919 0.360981 6.07821 0.22033 6.21886C0.0796779 6.35952 0.000660246 6.55028 0.000660238 6.74919C0.000660229 6.94811 0.0796779 7.13887 0.22033 7.27952C0.360981 7.42018 0.551749 7.49919 0.75066 7.49919L10.0007 7.49919L10.0007 12.7492C10.0008 12.8974 10.0448 13.0423 10.1273 13.1655C10.2097 13.2887 10.3268 13.3848 10.4637 13.4415C10.6007 13.4982 10.7514 13.513 10.8968 13.4842C11.0422 13.4553 11.1758 13.384 11.2807 13.2792L17.2807 7.27919C17.4211 7.13857 17.5 6.94795 17.5 6.74919C17.5 6.55044 17.4211 6.35982 17.2807 6.21919L11.2807 0.219193C11.1758 0.114437 11.0422 0.0431134 10.8968 0.0142295C10.7514 -0.0146545 10.6007 0.000195202 10.4637 0.0569064C10.3268 0.113618 10.2097 0.209646 10.1273 0.332862C10.0448 0.456077 10.0008 0.600954 10.0007 0.749194L10.0007 5.99919L0.75066 5.99919Z" fill="#1D1C1C"/>
</svg>
