<svg fill="#524cf1" xmlns="http://www.w3.org/2000/svg"  viewBox="0 0 100 100" width="100px" height="100px"><path d="M 49.5 15 C 30.458009 15 15 30.458022 15 49.5 C 15 68.541978 30.458009 84 49.5 84 C 68.541991 84 84 68.541978 84 49.5 C 84 30.458022 68.541991 15 49.5 15 z M 49.5 17 C 50.325811 17 51.261668 17.740053 52.179688 19.341797 C 53.097706 20.943541 53.952906 23.325561 54.669922 26.283203 C 54.948169 27.430956 55.19847 28.689159 55.433594 30 L 43.566406 30 C 43.80153 28.689159 44.051831 27.430956 44.330078 26.283203 C 45.047094 23.325561 45.902294 20.943541 46.820312 19.341797 C 47.738332 17.740053 48.674189 17 49.5 17 z M 47.248047 17.085938 C 46.78683 17.550821 46.355506 18.143634 45.953125 18.845703 C 44.956956 20.583803 44.088156 23.032642 43.357422 26.046875 C 43.06123 27.268648 42.795813 28.604847 42.548828 30 L 23.492188 30 C 28.996996 22.666685 37.533828 17.750241 47.248047 17.085938 z M 51.847656 17.177734 C 57.074362 17.961577 61.786539 21.333225 65.353516 26.451172 C 69.447425 32.32517 72 40.481666 72 49.5 C 72 56.387443 70.494007 62.750834 67.966797 68 L 43.384766 68 C 42.535807 62.870034 42.030353 56.6751 42.005859 50 L 55 50 A 0.50005 0.50005 0 1 0 55 49 L 42.005859 49 C 42.030353 42.3249 42.535807 36.129966 43.384766 31 L 55.615234 31 C 56.485588 36.25925 57 42.632164 57 49.5 C 57 55.696596 56.582232 61.490786 55.861328 66.427734 A 0.50036309 0.50036309 0 1 0 56.851562 66.572266 C 57.580659 61.579214 58 55.741404 58 49.5 C 58 42.65407 57.496374 36.294524 56.630859 31 L 65 31 A 0.50005 0.50005 0 1 0 65 30 L 56.451172 30 C 56.204187 28.604847 55.93877 27.268648 55.642578 26.046875 C 54.911844 23.032642 54.043044 20.583803 53.046875 18.845703 C 52.67216 18.191905 52.27322 17.627716 51.847656 17.177734 z M 57.5 17.992188 C 64.803834 19.838258 71.118702 24.152979 75.507812 30 L 74 30 A 0.50005 0.50005 0 1 0 74 31 L 76.222656 31 C 79.773806 36.122131 81.885274 42.31379 81.986328 49 L 77.035156 49 L 75 49 A 0.50005 0.50005 0 0 0 74.851562 49.019531 A 0.50005 0.50005 0 0 0 74.759766 49.058594 A 0.50005 0.50005 0 0 0 74.716797 49.083984 A 0.50005 0.50005 0 0 0 74.638672 49.146484 A 0.50005 0.50005 0 0 0 74.605469 49.183594 A 0.50005 0.50005 0 0 0 74.576172 49.224609 A 0.50005 0.50005 0 0 0 74.529297 49.3125 A 0.50005 0.50005 0 0 0 74.494141 49.457031 A 0.50005 0.50005 0 0 0 74.535156 49.701172 A 0.50005 0.50005 0 0 0 74.583984 49.789062 A 0.50005 0.50005 0 0 0 74.615234 49.828125 A 0.50005 0.50005 0 0 0 74.650391 49.863281 A 0.50005 0.50005 0 0 0 74.6875 49.896484 A 0.50005 0.50005 0 0 0 74.728516 49.923828 A 0.50005 0.50005 0 0 0 74.773438 49.949219 A 0.50005 0.50005 0 0 0 74.867188 49.984375 A 0.50005 0.50005 0 0 0 75 50 L 77 50 L 81.986328 50 C 81.885274 56.68621 79.773806 62.877869 76.222656 68 L 69.087891 68 C 71.558227 62.69194 73 56.338434 73 49.5 C 73 40.293334 70.404169 31.948658 66.173828 25.878906 C 63.762208 22.41868 60.806566 19.696182 57.5 17.992188 z M 40.738281 18.496094 A 0.50005 0.50005 0 0 0 40.46875 18.570312 C 39.937523 18.885569 39.415844 19.224698 38.904297 19.59375 A 0.5002983 0.5002983 0 0 0 39.488281 20.40625 C 39.974735 20.055302 40.471743 19.73043 40.978516 19.429688 A 0.50005 0.50005 0 0 0 40.738281 18.496094 z M 36.804688 21.494141 A 0.50005 0.50005 0 0 0 36.458984 21.638672 C 35.793397 22.272662 35.148831 22.950074 34.533203 23.675781 A 0.50091585 0.50091585 0 1 0 35.296875 24.324219 C 35.889247 23.625926 36.508025 22.971338 37.148438 22.361328 A 0.50005 0.50005 0 0 0 36.804688 21.494141 z M 33.375 25.494141 A 0.50005 0.50005 0 0 0 32.960938 25.710938 C 32.282067 26.670893 31.639301 27.684883 31.044922 28.757812 A 0.50006127 0.50006127 0 1 0 31.919922 29.242188 C 32.495543 28.203117 33.118214 27.221107 33.777344 26.289062 A 0.50005 0.50005 0 0 0 33.375 25.494141 z M 71 30 A 0.50005 0.50005 0 1 0 71 31 L 72 31 A 0.50005 0.50005 0 1 0 72 30 L 71 30 z M 22.777344 31 L 42.369141 31 C 41.524963 36.164 41.029921 42.346517 41.005859 49 L 27.048828 49 C 27.116188 42.833712 28.333102 37.069148 30.460938 32.199219 A 0.50005 0.50005 0 1 0 29.544922 31.800781 C 27.35847 36.804866 26.116097 42.699808 26.048828 49 L 17.013672 49 C 17.114726 42.31379 19.226194 36.122131 22.777344 31 z M 60 49 A 0.50005 0.50005 0 1 0 60 50 L 65 50 A 0.50005 0.50005 0 1 0 65 49 L 60 49 z M 68 49 A 0.50005 0.50005 0 1 0 68 50 L 70 50 A 0.50005 0.50005 0 1 0 70 49 L 68 49 z M 17.013672 50 L 26.035156 50 C 26.104846 56.643602 27.503631 62.824856 29.912109 68 L 22.777344 68 C 19.226194 62.877869 17.114726 56.68621 17.013672 50 z M 27.035156 50 L 41.005859 50 C 41.029921 56.653483 41.524963 62.836 42.369141 68 L 31.033203 68 C 28.568855 62.881402 27.107111 56.691348 27.035156 50 z M 23.492188 69 L 30.455078 69 C 31.184495 70.445413 31.946897 71.859497 32.826172 73.121094 C 35.252707 76.60272 38.231872 79.325532 41.564453 81.021484 C 34.233654 79.184451 27.894049 74.864007 23.492188 69 z M 31.607422 69 L 42.548828 69 C 42.795813 70.395153 43.06123 71.731352 43.357422 72.953125 C 44.088156 75.967358 44.956956 78.416197 45.953125 80.154297 C 46.32784 80.808095 46.72678 81.372284 47.152344 81.822266 C 41.925638 81.038423 37.213461 77.666775 33.646484 72.548828 C 32.891786 71.465977 32.25103 70.229068 31.607422 69 z M 43.566406 69 L 67.392578 69 C 66.74897 70.229068 66.108214 71.465977 65.353516 72.548828 C 61.784295 77.669994 57.068532 81.043145 51.837891 81.824219 C 52.088896 81.560368 52.329631 81.260649 52.560547 80.925781 C 53.436603 79.655348 54.214124 77.86868 54.902344 75.648438 A 0.50007733 0.50007733 0 1 0 53.947266 75.351562 C 53.277485 77.51232 52.520475 79.225058 51.738281 80.359375 C 50.956087 81.493692 50.193443 82 49.5 82 C 48.674189 82 47.738332 81.259947 46.820312 79.658203 C 45.902294 78.056459 45.047094 75.674439 44.330078 72.716797 C 44.051831 71.569044 43.80153 70.310841 43.566406 69 z M 68.544922 69 L 75.507812 69 C 71.10513 74.865101 64.764178 79.18699 57.431641 81.023438 C 60.765957 79.328178 63.746305 76.604137 66.173828 73.121094 C 67.053103 71.859497 67.815505 70.445413 68.544922 69 z M 55.664062 69.992188 A 0.50005 0.50005 0 0 0 55.181641 70.402344 C 55.043824 71.089442 54.898866 71.745769 54.748047 72.384766 A 0.50005 0.50005 0 1 0 55.720703 72.615234 C 55.873884 71.966231 56.021926 71.296558 56.162109 70.597656 A 0.50005 0.50005 0 0 0 55.664062 69.992188 z"/></svg>