<svg xmlns="http://www.w3.org/2000/svg" version="1.1" viewBox="-5.0 -10.0 110.0 135.0">
    <path d="m50 88.801c-21.387 0-38.789-17.406-38.789-38.789 0-21.387 17.406-38.789 38.789-38.789 21.387 0 38.789 17.406 38.789 38.789 0 21.387-17.406 38.789-38.789 38.789zm0-75.594c-20.297 0-36.801 16.504-36.801 36.801 0 20.297 16.504 36.801 36.801 36.801s36.801-16.504 36.801-36.801c0-20.297-16.504-36.801-36.801-36.801z"
          fill-rule="evenodd"/>
    <path d="m50 88.801c-6.5781 0-12.715-4.1055-17.301-11.539-4.4805-7.2891-6.9766-16.965-6.9766-27.25 0-10.285 2.4727-19.961 6.9766-27.25 4.5859-7.4375 10.723-11.539 17.301-11.539s12.715 4.1055 17.301 11.539c4.4805 7.2891 6.9766 16.965 6.9766 27.25 0 10.285-2.4727 19.961-6.9766 27.25-4.5859 7.457-10.723 11.539-17.301 11.539zm0-75.594c-12.297 0-22.285 16.504-22.285 36.801 0 20.297 9.9922 36.801 22.285 36.801 12.297 0 22.285-16.504 22.285-36.801 0-20.297-10.012-36.801-22.285-36.801z"
          fill-rule="evenodd"/>
    <path d="m50 59.227c-10.16 0-19.73-0.85937-26.938-2.4297-7.875-1.7188-11.855-4-11.855-6.7852 0-2.7852 3.9805-5.0703 11.855-6.7852 7.2031-1.5703 16.777-2.4297 26.938-2.4297s19.73 0.85938 26.938 2.4297c7.875 1.7188 11.855 4 11.855 6.7852 0 2.7852-3.9805 5.0703-11.855 6.7852-7.207 1.5703-16.777 2.4297-26.938 2.4297zm0-16.441c-10.031 0-19.438 0.83594-26.516 2.3867-7.6055 1.6562-10.285 3.6445-10.285 4.8398 0 1.1953 2.7031 3.1836 10.285 4.8398 7.0781 1.5312 16.484 2.3867 26.516 2.3867s19.438-0.83594 26.516-2.3867c7.6055-1.6562 10.285-3.6445 10.285-4.8398 0-1.1953-2.7031-3.1836-10.285-4.8398-7.0781-1.5508-16.484-2.3867-26.516-2.3867z"
          fill-rule="evenodd"/>
    <path d="m50 74.828c-10.285 0-19.961-2.5352-27.27-7.1211-7.4336-4.6914-11.539-10.977-11.539-17.68s4.1055-13.008 11.539-17.68c7.2891-4.6094 16.984-7.1211 27.27-7.1211s19.961 2.5352 27.27 7.1211c7.4336 4.6914 11.539 10.977 11.539 17.68s-4.1055 13.008-11.539 17.68c-7.3086 4.5859-16.988 7.1211-27.27 7.1211zm0-47.652c-20.297 0-36.801 10.242-36.801 22.832 0 12.59 16.504 22.832 36.801 22.832s36.801-10.242 36.801-22.832c0-12.59-16.504-22.832-36.801-22.832z"
          fill-rule="evenodd"/>
    <path d="m50 88.801c-2.9102 0-5.3008-3.9805-7.1016-11.836-1.6562-7.2031-2.5547-16.777-2.5547-26.957 0-10.18 0.90234-19.754 2.5547-26.957 1.8008-7.8555 4.1875-11.855 7.1016-11.855 2.9102 0 5.3008 3.9805 7.1016 11.855 1.6562 7.2031 2.5547 16.777 2.5547 26.957 0 10.18-0.90234 19.754-2.5547 26.957-1.8008 7.8555-4.1875 11.836-7.1016 11.836zm0-75.594c-3.207 0-7.668 14.012-7.668 36.801 0 22.789 4.4609 36.801 7.668 36.801s7.668-14.012 7.668-36.801c0-22.789-4.4609-36.801-7.668-36.801z"
          fill-rule="evenodd"/>
</svg>