<svg width="23" height="23" viewBox="0 0 23 23" fill="none" xmlns="http://www.w3.org/2000/svg">
<path d="M11.5182 2.71027C14.5343 2.71027 14.8915 2.72163 16.0826 2.7752C17.1839 2.8247 17.782 3.00609 18.18 3.15857C18.7073 3.36055 19.0836 3.60183 19.4788 3.99143C19.8741 4.38108 20.1189 4.75198 20.3238 5.2717C20.4785 5.66404 20.6625 6.2536 20.7127 7.33918C20.767 8.51324 20.7786 8.86541 20.7786 11.8384C20.7786 14.8114 20.767 15.1635 20.7127 16.3376C20.6625 17.4232 20.4785 18.0127 20.3238 18.4051C20.1189 18.9248 19.8741 19.2957 19.4788 19.6853C19.0836 20.0749 18.7073 20.3162 18.18 20.5182C17.782 20.6707 17.1839 20.8521 16.0826 20.9016C14.8917 20.9551 14.5345 20.9665 11.5182 20.9665C8.50196 20.9665 8.14478 20.9551 6.95385 20.9016C5.85254 20.8521 5.25445 20.6707 4.85642 20.5182C4.32917 20.3162 3.95289 20.0749 3.55765 19.6853C3.1624 19.2957 2.91759 18.9248 2.71268 18.4051C2.55799 18.0127 2.37398 17.4232 2.32376 16.3376C2.26941 15.1635 2.25789 14.8114 2.25789 11.8384C2.25789 8.86541 2.26941 8.51324 2.32376 7.33918C2.37398 6.2536 2.55799 5.66404 2.71268 5.2717C2.91759 4.75198 3.16236 4.38108 3.55765 3.99147C3.95289 3.60183 4.32917 3.36055 4.85642 3.15857C5.25445 3.00609 5.85254 2.8247 6.95385 2.7752C8.14492 2.72163 8.50218 2.71027 11.5182 2.71027ZM11.5182 0.704102C8.45053 0.704102 8.06587 0.716919 6.86108 0.771105C5.65879 0.825159 4.83768 1.0134 4.1192 1.28861C3.37641 1.57316 2.74649 1.95388 2.11849 2.57286C1.49054 3.1919 1.1043 3.81283 0.815681 4.545C0.536431 5.25323 0.345467 6.06262 0.29063 7.24773C0.235659 8.43532 0.222656 8.81449 0.222656 11.8384C0.222656 14.8623 0.235659 15.2414 0.29063 16.429C0.345467 17.6141 0.536431 18.4235 0.815681 19.1318C1.1043 19.8639 1.49054 20.4849 2.11849 21.1039C2.74649 21.7229 3.37641 22.1036 4.1192 22.3881C4.83768 22.6634 5.65879 22.8516 6.86108 22.9057C8.06587 22.9598 8.45053 22.9727 11.5182 22.9727C14.5859 22.9727 14.9706 22.9598 16.1754 22.9057C17.3777 22.8516 18.1988 22.6634 18.9172 22.3881C19.66 22.1036 20.29 21.7229 20.918 21.1039C21.5459 20.4849 21.9321 19.8639 22.2208 19.1318C22.5 18.4235 22.691 17.6141 22.7458 16.429C22.8008 15.2414 22.8138 14.8623 22.8138 11.8384C22.8138 8.81449 22.8008 8.43532 22.7458 7.24773C22.691 6.06262 22.5 5.25323 22.2208 4.545C21.9321 3.81283 21.5459 3.1919 20.918 2.57286C20.29 1.95388 19.66 1.57316 18.9172 1.28861C18.1988 1.0134 17.3777 0.825159 16.1754 0.771105C14.9706 0.716919 14.5859 0.704102 11.5182 0.704102Z" fill="white"/>
<path d="M11.5235 6.12596C8.31995 6.12596 5.72303 8.6858 5.72303 11.8435C5.72303 15.0013 8.31995 17.5612 11.5235 17.5612C14.727 17.5612 17.3239 15.0013 17.3239 11.8435C17.3239 8.6858 14.727 6.12596 11.5235 6.12596ZM11.5235 15.555C9.44399 15.555 7.75827 13.8933 7.75827 11.8435C7.75827 9.79379 9.44399 8.13213 11.5235 8.13213C13.6029 8.13213 15.2886 9.79379 15.2886 11.8435C15.2886 13.8933 13.6029 15.555 11.5235 15.555Z" fill="white"/>
<path d="M18.9081 5.89654C18.9081 6.63442 18.3013 7.23264 17.5526 7.23264C16.8041 7.23264 16.1972 6.63442 16.1972 5.89654C16.1972 5.15861 16.8041 4.5604 17.5526 4.5604C18.3013 4.5604 18.9081 5.15861 18.9081 5.89654Z" fill="white"/>
</svg>
